<?xml version="1.0" encoding="UTF-8" standalone="no"?>
<svg
   width="112.04942"
   height="139.85576"
   viewBox="0 0 112.04942 139.85576"
   fill="none"
   version="1.1"
   id="svg5"
   sodipodi:docname="logo.svg"
   inkscape:version="1.4.1 (93de688d07, 2025-03-30)"
   xmlns:inkscape="http://www.inkscape.org/namespaces/inkscape"
   xmlns:sodipodi="http://sodipodi.sourceforge.net/DTD/sodipodi-0.dtd"
   xmlns="http://www.w3.org/2000/svg"
   xmlns:svg="http://www.w3.org/2000/svg">
  <defs
     id="defs5" />
  <sodipodi:namedview
     id="namedview5"
     pagecolor="#ffffff"
     bordercolor="#000000"
     borderopacity="0.25"
     inkscape:showpageshadow="2"
     inkscape:pageopacity="0.0"
     inkscape:pagecheckerboard="0"
     inkscape:deskcolor="#d1d1d1"
     inkscape:zoom="5.5175644"
     inkscape:cx="24.286078"
     inkscape:cy="85.90747"
     inkscape:window-width="2509"
     inkscape:window-height="1404"
     inkscape:window-x="51"
     inkscape:window-y="0"
     inkscape:window-maximized="1"
     inkscape:current-layer="svg5" />
  <rect
     style="fill:#ffffff;fill-opacity:1;stroke:none;stroke-width:1.0309;stroke-linecap:round;stroke-linejoin:round;stroke-dasharray:none"
     id="rect1"
     width="112.04942"
     height="139.85576"
     x="0"
     y="0" />
  <path
     d="m 27.793877,7.7264692 c -1.233591,0.1992757 -2.713931,0.8445434 -3.757739,1.6416516 -3.159907,2.4007892 -5.608157,7.4965632 -6.642492,13.8448902 -0.389055,2.400773 -0.654752,5.731578 -0.654752,8.274766 0,2.998607 0.351099,6.832198 0.85404,9.47972 0.11387,0.58839 0.170805,1.110372 0.123359,1.148297 -0.03796,0.03793 -0.502941,0.417493 -1.02486,0.834985 -1.783978,1.423374 -3.824195,3.615479 -5.228606,5.617801 -2.6949687,3.824148 -4.4410041,8.170277 -5.171682,12.876933 -0.2846792,1.859907 -0.3605938,5.617646 -0.1328502,7.477553 0.5029337,4.289164 1.79348,7.914086 4.0044862,11.235448 l 0.721192,1.072291 -0.208762,0.351083 c -1.4803404,2.486223 -2.7424145,6.082662 -3.3307503,9.536686 -0.4649768,2.732972 -0.5219133,3.463622 -0.5219133,7.12647 0,3.691486 0.047447,4.422136 0.4839551,6.974766 0.5219132,3.05558 1.5847149,6.29133 2.7708755,8.44551 0.389071,0.70217 1.338003,2.16347 1.451873,2.23948 0.03796,0.0189 -0.07591,0.36997 -0.256207,0.77802 -1.3664707,2.98916 -2.5336532,6.96516 -3.017616,10.31501 -0.3416098,2.29628 -0.3890556,3.03653 -0.3890556,5.45635 0,3.0839 0.1708049,4.58328 0.8160834,7.04102 l 0.094892,0.36052 h 4.0614232 4.070928 l -0.265712,-0.50294 c -1.64164,-3.03653 -1.793467,-8.67322 -0.379567,-14.30031 0.645279,-2.60015 1.37596,-4.50743 2.742415,-7.13606 l 0.816083,-1.59412 v -0.9774 c 0,-0.91099 -0.01898,-1.01533 -0.313142,-1.61316 -0.227755,-0.45557 -0.531409,-0.84458 -1.072306,-1.376 -0.920465,-0.89195 -1.584706,-1.83143 -2.116115,-2.98917 -2.334365,-5.06733 -2.78986,-12.592259 -1.148204,-19.007119 0.683235,-2.676006 1.812461,-5.057739 2.998622,-6.357739 0.806594,-0.892105 1.224118,-1.88839 1.224118,-2.922755 0,-1.072291 -0.379567,-1.954798 -1.233607,-2.875232 -2.44825,-2.61904 -3.957043,-5.807584 -4.497941,-9.5178 -0.768637,-5.285603 0.626301,-11.045664 3.795727,-15.609905 3.103019,-4.479102 7.458575,-7.354334 12.326686,-8.122909 1.091176,-0.180341 3.131424,-0.151858 4.270123,0.05697 1.243189,0.218267 2.021207,0.151703 2.818421,-0.227863 0.986842,-0.464861 1.48034,-1.043808 2.059133,-2.372291 0.512384,-1.186068 0.91099,-1.831424 1.983281,-3.169349 1.290557,-1.603715 2.533591,-2.695046 4.526315,-4.014086 2.277554,-1.489784 4.868111,-2.571517 7.449225,-3.093499 0.939319,-0.189783 1.375852,-0.218266 3.131424,-0.218266 1.755573,0 2.192105,0.02848 3.131424,0.218266 3.786222,0.768731 7.544117,2.72353 10.542723,5.494272 0.645201,0.597833 2.19195,2.514706 2.685448,3.311919 0.189784,0.313003 0.521982,0.977399 0.730651,1.470743 0.578792,1.328483 1.07229,1.90743 2.059132,2.372291 0.768731,0.370124 1.575232,0.44613 2.770898,0.246749 1.88839,-0.322601 3.340247,-0.294118 5.190711,0.08545 6.300928,1.271517 11.785757,6.462228 14.215014,13.417955 2.116099,6.101547 1.518266,12.487924 -1.632198,17.365322 -0.531424,0.825697 -1.062848,1.489938 -1.831424,2.306037 -1.660681,1.774458 -1.660681,3.976006 -0.0094,5.797987 2.713932,2.970123 4.412538,10.276934 3.9,16.720122 -0.341486,4.25124 -1.432817,8.05651 -2.932198,10.21053 -0.265635,0.37957 -0.815944,1.02477 -1.233591,1.42338 -0.540867,0.53142 -0.844427,0.92043 -1.072291,1.376 -0.294118,0.59783 -0.313158,0.70217 -0.313158,1.61316 v 0.9774 l 0.816099,1.59412 c 1.366563,2.62863 2.097213,4.53591 2.742414,7.13606 1.395047,5.55124 1.271672,11.074 -0.3226,14.21502 -0.132817,0.26563 -0.246749,0.51238 -0.246749,0.54086 0,0.0285 1.812538,0.0474 4.032971,0.0474 h 4.023526 l 0.10434,-0.40805 c 0.057,-0.21811 0.15185,-0.55031 0.19922,-0.74009 0.10449,-0.41749 0.31316,-1.65108 0.48406,-2.83731 0.1613,-1.19566 0.1613,-5.59876 0,-6.92724 -0.60728,-4.82059 -1.62276,-8.64474 -3.28328,-12.26021 -0.18034,-0.40805 -0.29427,-0.75914 -0.25635,-0.77802 0.0475,-0.0285 0.31316,-0.40805 0.59783,-0.83514 2.06873,-3.13143 3.34025,-7.06951 3.98561,-12.26967 0.17074,-1.43297 0.17074,-7.591482 0,-8.967488 -0.45558,-3.548916 -1.00589,-5.959287 -1.91688,-8.397987 -0.37956,-1.015325 -1.38544,-3.159906 -1.81238,-3.852631 l -0.20882,-0.351083 0.7212,-1.072291 c 2.21099,-3.321362 3.50155,-6.946284 4.00449,-11.235448 0.2277,-1.859907 0.15185,-5.617646 -0.13281,-7.477553 -0.7403,-4.716289 -2.47683,-9.043378 -5.17172,-12.876969 -1.404487,-2.002322 -3.444735,-4.194427 -5.228635,-5.617801 -0.521982,-0.417492 -0.986997,-0.797059 -1.024923,-0.834985 -0.04737,-0.03793 0.0096,-0.559907 0.123375,-1.148297 1.148297,-5.98777 1.110216,-13.455725 -0.09489,-19.29173 -1.04381,-5.086269 -2.941642,-9.12873 -5.389939,-11.463095 -1.954799,-1.8599101 -3.947523,-2.6570133 -6.338854,-2.505184 -5.484829,0.3226361 -9.90681,6.633032 -11.652939,16.577814 -0.284675,1.603714 -0.53127,3.482662 -0.53127,3.995045 0,0.199226 -0.03808,0.360527 -0.08545,0.360527 -0.04752,0 -0.417492,-0.189784 -0.816099,-0.426935 -4.232197,-2.505263 -8.939008,-3.843189 -13.522289,-3.843189 -4.583281,0 -9.290091,1.337926 -13.522289,3.843189 -0.398607,0.237151 -0.768576,0.426935 -0.816099,0.426935 -0.04737,0 -0.08545,-0.161301 -0.08545,-0.360527 0,-0.531424 -0.256192,-2.467182 -0.531269,-3.995045 C 39.484742,15.355876 35.850378,9.4440341 31.020347,7.9542077 30.356106,7.7549321 28.467716,7.6220867 27.793877,7.7264692 Z m 1.613313,7.7243138 c 1.366408,1.08178 2.884674,4.175294 3.757739,7.6389 0.1613,0.626269 0.332043,1.347476 0.379566,1.613111 0.03793,0.256346 0.142261,0.835139 0.227709,1.281114 0.370124,2.011765 0.540867,4.184829 0.559907,6.832352 l 0.0094,2.609597 -0.654798,0.967802 -0.654644,0.977399 h -1.527864 c -1.783901,0 -3.558513,0.227864 -5.25712,0.683282 -0.607275,0.151857 -1.195665,0.303715 -1.309442,0.332198 -0.180341,0.03793 -0.208824,-0.01904 -0.313158,-0.797214 -0.559907,-4.222754 -0.531424,-8.900927 0.08545,-12.791639 0.683126,-4.336546 2.277399,-8.265122 3.83359,-9.422815 0.370124,-0.275202 0.436533,-0.265712 0.863623,0.07591 z m 54.108042,-0.06644 c 0.939473,0.692724 1.973838,2.533654 2.742414,4.886997 1.546749,4.706686 1.983282,11.168914 1.167183,17.317984 -0.104335,0.778174 -0.132818,0.83514 -0.313158,0.797214 -0.113777,-0.02848 -0.702167,-0.180341 -1.309443,-0.332198 -1.698606,-0.455418 -3.473219,-0.683282 -5.25712,-0.683282 h -1.527863 l -0.654644,-0.977399 -0.654799,-0.967802 0.0094,-2.609597 c 0.01904,-3.681888 0.360681,-6.55712 1.176625,-9.755044 0.863622,-3.435139 2.391331,-6.528653 3.748297,-7.610433 0.42709,-0.341626 0.493498,-0.351115 0.873065,-0.06644 z"
     fill="#000000"
     id="path1"
     style="stroke-width:0.154799" />
  <path
     d="m 54.553781,63.143965 c -2.059288,0.199381 -2.61904,0.275232 -3.606037,0.474613 -1.603715,0.332043 -3.748297,1.072291 -5.23808,1.802941 -5.181114,2.533591 -8.74907,6.756346 -9.840401,11.643342 -0.218266,0.967956 -0.246749,1.290557 -0.246749,2.922755 0,1.613158 0.02848,1.964241 0.237306,2.884674 1.451858,6.386377 7.335139,11.102631 14.945664,11.966098 1.651083,0.18034 8.78715,0.18034 10.438234,0 6.111144,-0.692724 11.368264,-4.004489 13.731112,-8.654333 0.626161,-1.243034 0.929876,-2.04969 1.214551,-3.311765 0.208824,-0.920433 0.237307,-1.271516 0.237307,-2.884674 0,-1.632198 -0.02848,-1.954799 -0.246749,-2.922755 -1.58483,-7.097987 -8.473993,-12.68715 -16.919503,-13.749998 -1.100774,-0.132818 -3.985448,-0.246749 -4.706655,-0.170898 z m 3.548915,5.162228 c 2.818421,0.303715 5.655727,1.309598 7.933126,2.827864 1.224149,0.816099 2.951238,2.524148 3.691331,3.643962 0.910991,1.385294 1.432817,2.799226 1.670124,4.516873 0.104334,0.787616 0.04752,1.385448 -0.237307,2.656965 -0.445975,1.897833 -1.831424,3.881114 -3.700773,5.266563 -0.873065,0.635758 -2.685449,1.556346 -3.795665,1.916873 -2.106656,0.673684 -3.482662,0.797058 -8.398142,0.759133 -3.207275,-0.02848 -3.776779,-0.05697 -4.697213,-0.227709 -3.140866,-0.58839 -5.627089,-1.841022 -7.43003,-3.748297 -1.461454,-1.537306 -2.125696,-2.94164 -2.486222,-5.209597 -0.1613,-1.053405 0.14226,-2.79938 0.759133,-4.270278 0.74969,-1.793498 2.685448,-4.023374 4.602321,-5.304488 2.220433,-1.480341 5.143188,-2.533591 7.828637,-2.818266 1.034365,-0.113932 3.226315,-0.113932 4.26068,-0.0096 z"
     fill="#000000"
     id="path2"
     style="stroke-width:0.154799" />
  <path
     d="m 52.399911,75.233592 c -0.721207,0.389009 -1.224149,1.375851 -1.072291,2.106501 0.170743,0.787616 0.863467,1.58483 1.945201,2.239628 0.578947,0.351084 0.616873,0.398452 0.645356,0.749536 0.01888,0.208823 -0.05697,0.806656 -0.1613,1.33808 -0.113932,0.521827 -0.199381,1.072291 -0.199381,1.224148 0.0096,0.40805 0.389164,1.072291 0.787616,1.394892 0.351238,0.284675 0.417647,0.294118 1.404489,0.322601 0.901548,0.02848 1.091331,0.0094 1.451857,-0.161301 0.930031,-0.455572 1.167183,-1.290557 0.825542,-2.894272 -0.284675,-1.337925 -0.227709,-1.546749 0.484056,-1.954798 0.749535,-0.436533 1.546749,-1.205109 1.7839,-1.72709 0.455573,-0.996285 0.03793,-2.125541 -0.967956,-2.647523 -0.246595,-0.123374 -0.55031,-0.180185 -0.996285,-0.180185 -0.692724,0 -1.1387,0.1613 -1.954798,0.683126 l -0.465016,0.294273 -0.294117,-0.180341 c -1.205109,-0.711764 -1.423375,-0.797058 -2.15418,-0.787616 -0.521826,0 -0.806501,0.04737 -1.062693,0.180341 z"
     fill="#000000"
     id="path3"
     style="stroke-width:0.154799" />
  <path
     d="m 29.359666,64.216411 c -1.679566,0.531424 -2.932197,1.765015 -3.577399,3.520587 -0.313157,0.83514 -0.465015,2.15418 -0.332198,2.865789 0.313158,1.698607 1.70805,3.245356 3.292879,3.672446 1.992724,0.521826 3.482507,0.180186 4.801547,-1.129257 0.768576,-0.74969 1.186223,-1.404489 1.603715,-2.467337 0.303561,-0.749536 0.322601,-0.882353 0.322601,-1.945201 l 0.0094,-1.1387 -0.398452,-0.816099 c -0.635913,-1.290557 -1.784056,-2.249071 -3.112538,-2.600154 -0.749691,-0.189783 -1.954799,-0.180186 -2.609598,0.03793 z"
     fill="#000000"
     id="path4"
     style="stroke-width:0.154799" />
  <path
     d="m 80.042167,64.188082 c -1.3,0.351084 -2.457739,1.318886 -3.074612,2.590557 l -0.398452,0.816099 0.0094,1.1387 c 0,1.062848 0.01904,1.195665 0.322601,1.945201 0.417647,1.062848 0.835139,1.717647 1.603715,2.467337 1.31904,1.309443 2.808823,1.651083 4.801702,1.129257 1.148142,-0.303715 2.296285,-1.271672 2.846749,-2.400929 0.474458,-0.958359 0.588235,-1.651083 0.436532,-2.742414 -0.351083,-2.495665 -1.812538,-4.308049 -3.985603,-4.943808 -0.635758,-0.189783 -1.869349,-0.189783 -2.562074,0 z"
     fill="#000000"
     id="path5"
     style="stroke-width:0.154799" />
  <g
     id="g9"
     transform="matrix(0.10477758,0.06049337,-0.06049337,0.10477758,50.054339,-55.842992)">
    <rect
       style="fill:none;stroke:#000000;stroke-width:20;stroke-linecap:round;stroke-linejoin:round;stroke-dasharray:none;stroke-opacity:1"
       id="rect5"
       width="339.28012"
       height="443.67401"
       x="1239.7802"
       y="-270.6423"
       rx="28.194233"
       ry="28.194233"
       transform="rotate(60)" />
    <g
       id="g6"
       transform="rotate(60,781.70623,834.73425)">
      <rect
         style="fill:#000000;fill-opacity:1;stroke:#000000;stroke-width:10;stroke-linecap:round;stroke-linejoin:round;stroke-dasharray:none;stroke-opacity:1"
         id="rect6"
         width="190.87909"
         height="95.1847"
         x="981.93268"
         y="788.31787"
         rx="33.348049"
         ry="33.348049" />
      <circle
         style="fill:#ffffff;fill-opacity:1;stroke:#000000;stroke-width:10;stroke-linecap:round;stroke-linejoin:round;stroke-dasharray:none;stroke-opacity:1"
         id="path6"
         cx="1077.3722"
         cy="783.31787"
         r="24.28966" />
    </g>
    <path
       style="fill:#ffffff;fill-opacity:1;stroke:#000000;stroke-width:20;stroke-linecap:round;stroke-linejoin:round;stroke-dasharray:none;stroke-opacity:1"
       d="m 778.06888,1062.2624 90.79696,157.2649"
       id="path7" />
    <path
       style="fill:#ffffff;fill-opacity:1;stroke:#000000;stroke-width:20;stroke-linecap:round;stroke-linejoin:round;stroke-dasharray:none;stroke-opacity:1"
       d="m 682.79156,1117.2707 48.02446,83.1809"
       id="path8"
       sodipodi:nodetypes="cc" />
    <path
       style="fill:#ffffff;fill-opacity:1;stroke:#000000;stroke-width:20;stroke-linecap:round;stroke-linejoin:round;stroke-dasharray:none;stroke-opacity:1"
       d="m 587.51421,1172.2791 68.32326,118.3394"
       id="path9"
       sodipodi:nodetypes="cc" />
  </g>
</svg>
